<svg width="32" height="32" viewBox="0 0 32 32" fill="none" xmlns="http://www.w3.org/2000/svg">
<path fill-rule="evenodd" clip-rule="evenodd" d="M4 16C4 15.2636 4.59695 14.6667 5.33333 14.6667L26.6667 14.6667C27.403 14.6667 28 15.2636 28 16C28 16.7364 27.403 17.3333 26.6667 17.3333H5.33333C4.59695 17.3333 4 16.7364 4 16Z" fill="#334466"/>
<path fill-rule="evenodd" clip-rule="evenodd" d="M4 7.99999C4 7.26361 4.59695 6.66666 5.33333 6.66666L26.6667 6.66666C27.403 6.66666 28 7.26361 28 7.99999C28 8.73637 27.403 9.33332 26.6667 9.33332H5.33333C4.59695 9.33332 4 8.73637 4 7.99999Z" fill="#334466"/>
<path fill-rule="evenodd" clip-rule="evenodd" d="M4 24C4 23.2636 4.59695 22.6667 5.33333 22.6667H26.6667C27.403 22.6667 28 23.2636 28 24C28 24.7364 27.403 25.3333 26.6667 25.3333H5.33333C4.59695 25.3333 4 24.7364 4 24Z" fill="#334466"/>
</svg>
