<svg width="206" height="261" viewBox="0 0 206 261" fill="none" xmlns="http://www.w3.org/2000/svg">
<path d="M144.061 123.048C144.061 123.048 156.021 150.094 160.916 147.562C165.811 145.031 145.417 118.381 145.417 118.381C145.417 118.381 160.316 92.3691 169.631 87.2087C169.631 87.2087 171.904 120.088 176.026 116.426C180.147 112.763 179.362 78.4384 179.362 78.4384C179.362 78.4384 199.286 58.518 212.249 69.5242C225.213 80.5305 223.947 91.3613 221.144 94.5317C218.341 97.702 196.454 112.338 198.948 114.769C201.442 117.2 219.194 111.633 225.629 103.477C225.629 103.477 231.918 131.937 219.308 138.947C206.699 145.956 197.999 141.15 190.286 145.623C182.573 150.097 178.575 155.751 183.594 155.205C188.614 154.659 200.091 144.807 209.475 145.769C218.858 146.73 225.772 146.537 216.333 156.348C206.894 166.159 186.202 178.309 176.441 172.57L175.22 171.851C175.594 172.143 176.005 172.384 176.441 172.57C175.226 175.146 176.065 182.876 176.93 188.653C177.135 189.596 177.36 190.941 177.605 192.811C177.747 193.633 177.87 194.302 177.957 194.768C180.748 207.124 194.304 222.45 194.304 222.45L192.39 224.699C175.594 211.407 175.187 191.277 175.187 191.277C173.548 176.219 166.679 166.832 166.679 166.832C166.679 166.832 137.41 169.531 136.236 146.687C136.243 146.684 137.353 131.397 144.061 123.048Z" fill="#DFEBFD"/>
<path d="M58.2214 111.159C58.2214 111.159 72.5031 139.73 87.0156 159.449C92.7864 167.298 98.5963 173.746 103.553 176.435C108.406 179.065 112.513 183.153 115.912 187.682C124.716 199.411 128.779 214.095 128.779 214.095L165.865 157.975C165.865 157.975 164.599 103.114 160.145 93.9378C153.653 80.565 150.517 53.545 148.023 48.1656C146.173 44.1749 140.889 23.5616 140.375 22.0469C140.156 21.3945 138.397 20.3972 136.114 20.3972C134.282 20.3972 131.165 22.1684 130.387 25.8066C126.42 44.2004 131.195 56.3329 131.137 56.8713C129.737 71.0075 133.944 81.5008 130.994 84.2798C130.883 84.3817 130.681 84.3338 130.394 84.1493C125.28 80.8665 93.5393 34.5903 89.6296 33.5915C85.5159 32.5373 58.2214 111.159 58.2214 111.159Z" fill="#EFA26F"/>
<path d="M117.614 202.991C117.614 202.991 118.119 227.931 119.563 261.521H213.138C191.75 215.909 173.153 177.52 173.153 177.52C173.153 177.52 119.874 179.147 117.614 202.991Z" fill="#F99746"/>
<path d="M25.7933 14.4662L37.2809 31.3063L48.5541 47.8329C49.241 48.6623 50.0373 48.9517 50.8982 48.8677C53.5976 48.6113 56.9494 44.7106 59.5574 42.5495L59.8229 42.3321C61.4754 40.9565 62.5166 38.983 62.7189 36.8424C62.9212 34.7018 62.2682 32.5682 60.9026 30.9074L43.6726 10.0796L38.5632 3.90386C37.1881 2.25072 35.2146 1.20905 33.0739 1.00644C30.9332 0.803835 28.7993 1.45677 27.1385 2.82258L26.873 3.04004C25.2207 4.41604 24.1798 6.38981 23.9775 8.53052C23.7752 10.6712 24.4279 12.805 25.7933 14.4662Z" fill="#FFB27D"/>
<path d="M37.275 31.3063L48.5482 47.8329C49.235 48.6623 50.0314 48.9517 50.8922 48.8677L43.6667 10.0796C43.6517 10.297 42.4234 27.701 37.275 31.3063Z" fill="#EFA26F"/>
<path d="M87.0111 159.452C92.7819 167.302 98.5917 173.749 103.548 176.438C108.401 179.068 112.509 183.156 115.907 187.685C119.817 185.863 124.274 183.725 128.631 181.607C133.935 179.029 134.139 171.498 128.943 168.71C128.892 168.683 128.842 168.656 128.793 168.627C123.923 165.842 118.935 156.004 118.935 156.004L87.0111 159.452Z" fill="#D38254"/>
<path d="M140.648 22.9004L143.647 35.0359C143.647 35.0359 141.02 36.1112 139.333 35.2759C137.645 34.4406 136.273 23.5543 140.648 22.9004Z" fill="#FFC197"/>
<path d="M54.2082 0H118.841C125.225 0 130.4 5.17543 130.4 11.5597V153.627C130.4 160.012 125.225 165.187 118.841 165.187H54.2082C47.824 165.187 42.6486 160.012 42.6486 153.627V11.5597C42.6486 5.17543 47.824 0 54.2082 0Z" fill="#2B478B"/>
<path d="M46.9976 12.6528V151.429C46.9976 156.136 50.8218 159.987 55.4934 159.987H117.555C122.227 159.987 126.05 156.136 126.05 151.429V12.6528C126.05 7.94521 122.227 4.09399 117.555 4.09399H55.4874C50.8218 4.09399 46.9976 7.94521 46.9976 12.6528Z" fill="#C0D8FB"/>
<path d="M55.4874 4.09399L116.787 159.992H117.555C122.227 159.992 126.05 156.141 126.05 151.433V12.6528C126.05 7.94521 122.227 4.09399 117.555 4.09399H55.4874Z" fill="#CBE1FD"/>
<path d="M73.5542 8.48413H99.4914C101.613 8.48413 103.334 10.2044 103.334 12.3264V12.9292C103.334 15.0512 101.613 16.7715 99.4914 16.7715H73.5542C71.4322 16.7715 69.7119 15.0512 69.7119 12.9292V12.3264C69.7119 10.2044 71.4322 8.48413 73.5542 8.48413Z" fill="#2B478B"/>
<path d="M31.5058 78.0636L33.2184 78.7085L44.7391 83.0861C45.0057 83.1881 45.2781 83.2743 45.5549 83.3441C47.4236 83.8229 49.403 83.5986 51.1172 82.7139C52.8314 81.8292 54.1608 80.3456 54.853 78.545L55.0225 78.1026C55.7555 76.1568 55.6887 74.0001 54.8367 72.1034C53.9847 70.2067 52.4168 68.7242 50.4754 67.9797L39.7406 63.899L38.9608 63.5991L37.2481 62.9482C35.3027 62.2153 33.1464 62.2822 31.2502 63.1342C29.354 63.9862 27.872 65.5541 27.1282 67.4953L26.9587 67.9452C26.2271 69.8904 26.2946 72.0461 27.1465 73.9417C27.9984 75.8373 29.5655 77.3191 31.5058 78.0636Z" fill="#FFB27D"/>
<path d="M40.861 78.3275C42.7836 79.0564 46.2599 80.3491 48.1255 80.6161C48.6519 80.6926 49.6252 80.4061 50.5251 79.4163C51.0694 78.8164 51.5883 77.9766 51.9737 76.8039C52.1626 76.2631 52.2948 75.7042 52.3682 75.1362C52.441 74.4752 52.4198 73.8072 52.3052 73.1521C52.2461 72.8465 52.1158 72.5592 51.9248 72.3134C51.7338 72.0677 51.4875 71.8705 51.2059 71.7379C51.2059 71.7379 51.2059 71.7379 51.1969 71.7379C49.2173 70.7916 46.5479 69.6383 44.2113 68.9979C42.5932 68.548 40.957 69.2649 40.4456 70.6806L40.2041 71.342L38.9669 74.7283C38.4585 76.1275 39.2908 77.7352 40.861 78.3275Z" fill="#FFD3B6"/>
<path d="M40.861 78.3275C42.7836 79.0563 46.2599 80.3491 48.1255 80.616C48.6519 80.6925 49.6252 80.4061 50.525 79.4163C50.6225 79.1913 50.711 78.9529 50.795 78.6994C50.9839 78.1582 51.116 77.5988 51.1894 77.0302C51.2615 76.3697 51.2403 75.7023 51.1264 75.0477C51.067 74.742 50.9365 74.4546 50.7456 74.2087C50.5546 73.9628 50.3085 73.7652 50.0271 73.6319C50.0271 73.6319 50.0271 73.6319 50.0181 73.6319C48.0385 72.6871 45.3691 71.5324 43.031 70.8935C42.5562 70.7519 42.0557 70.7188 41.5664 70.7967C41.0771 70.8746 40.6115 71.0614 40.2041 71.3434L38.9669 74.7297C38.4585 76.1274 39.2908 77.7351 40.861 78.3275Z" fill="#FFC197"/>
<path d="M36.7337 94.2588L45.6164 96.6778C46.9181 97.029 48.3059 96.8502 49.4762 96.1808C50.6464 95.5113 51.5039 94.4056 51.8611 93.1056L52.1356 92.1008C52.4867 90.7991 52.308 89.4113 51.6385 88.241C50.9691 87.0707 49.8633 86.2132 48.5633 85.856L39.6791 83.437C38.3784 83.0882 36.9925 83.268 35.824 83.9373C34.6554 84.6065 33.7991 85.7109 33.4418 87.0093L33.1674 88.0156C32.8165 89.3163 32.9946 90.703 33.6628 91.8728C34.3311 93.0426 35.435 93.9004 36.7337 94.2588Z" fill="#FFB27D"/>
<path d="M41.5402 93.8238C43.1719 94.2588 46.1218 95.0236 47.668 95.1121C48.2303 95.1436 49.3566 94.6622 50.0915 93.1895C50.2877 92.7901 50.4386 92.3701 50.5414 91.9372C50.6564 91.5107 50.7228 91.0725 50.7393 90.631C50.7508 90.117 50.6841 89.6042 50.5414 89.1103C50.4659 88.8738 50.3355 88.6585 50.1609 88.482C49.9862 88.3056 49.7723 88.173 49.5366 88.095C47.8434 87.4951 45.5699 86.7828 43.6023 86.4453C42.2436 86.2069 40.9553 86.8608 40.6374 87.981L40.4079 88.7804L39.7241 91.1799C39.4016 92.2866 40.204 93.4699 41.5402 93.8238Z" fill="#FFD3B6"/>
<path d="M41.5401 93.8238C43.1718 94.2587 46.1217 95.0235 47.6679 95.112C48.2303 95.1435 49.3565 94.6621 50.0914 93.1894C50.1959 92.7888 50.2558 92.3779 50.2699 91.9642C50.2813 91.4502 50.2146 90.9374 50.0719 90.4435C49.9962 90.2073 49.8659 89.9923 49.6916 89.8159C49.5173 89.6395 49.3039 89.5066 49.0686 89.4282C49.0686 89.4282 49.0686 89.4282 49.0596 89.4282C47.3664 88.8283 45.0929 88.1174 43.1253 87.7785C42.0005 87.5805 40.9238 87.996 40.4049 88.7788L39.721 91.1783C39.4016 92.2866 40.2039 93.4698 41.5401 93.8238Z" fill="#FFC197"/>
<path d="M182.263 196.442C182.263 196.442 163.978 213.956 151.651 220.718L142.32 214.098V223.863C142.32 223.863 123.965 227.11 118.175 223.863V197.233L169.728 171.39L182.263 196.442Z" fill="#ED7D2B"/>
<path d="M165.865 156C165.865 156 177.477 173.372 189.017 191.946C189.017 191.946 164.697 208.677 151.51 213.585L134.221 193.776L136.691 217.621C136.691 217.621 121.384 223.2 114.283 221.743C114.283 221.743 114.733 200.112 114.733 185.938C114.725 185.937 156.801 174.145 165.865 156Z" fill="#F3F8FF"/>
<path d="M163.016 200.085C163.011 199.515 162.837 198.96 162.516 198.489C162.195 198.018 161.742 197.653 161.214 197.44C160.685 197.227 160.106 197.176 159.548 197.292C158.99 197.408 158.48 197.688 158.081 198.094C157.682 198.501 157.413 199.017 157.307 199.577C157.201 200.136 157.264 200.715 157.487 201.239C157.711 201.763 158.084 202.209 158.561 202.521C159.038 202.833 159.597 202.996 160.166 202.99C160.929 202.982 161.657 202.671 162.191 202.127C162.726 201.582 163.022 200.848 163.016 200.085Z" fill="#F99746"/>
<path d="M31.7923 61.0375L31.9843 61.102L43.6309 64.0924C48.7523 65.4092 54.0478 62.6377 55.399 57.9437L56.0874 55.5262C57.3876 51.0121 54.5877 46.291 49.8366 44.7599L45.9914 43.7731L38.193 41.7695C33.073 40.4542 27.7761 43.2257 26.4249 47.9272L25.732 50.3357C24.4438 54.7898 27.1432 59.4419 31.7923 61.0375Z" fill="#FFB27D"/>
<path d="M37.1237 57.7862L42.782 60.3357L42.818 60.3447C43.0431 60.4047 43.2714 60.4518 43.5019 60.4857C43.5964 60.5007 43.6938 60.5112 43.7883 60.5217C43.8282 60.5254 43.8684 60.5254 43.9083 60.5217C44.0556 60.5155 44.1991 60.4732 44.3262 60.3986C44.4533 60.324 44.5602 60.2193 44.6373 60.0937C44.7145 59.9681 44.7596 59.8254 44.7687 59.6783C44.7779 59.5312 44.7507 59.3841 44.6896 59.2499C44.1347 58.0487 44.0211 56.6904 44.3687 55.4137L44.5037 54.9203C44.5032 54.9153 44.5032 54.9103 44.5037 54.9053L44.9416 53.2991C45.2767 52.0657 45.9951 50.9707 46.9932 50.1723C47.1087 50.0778 47.2286 49.9893 47.3501 49.9053C48.4689 49.13 48.1839 47.3753 46.8747 47.0124L46.8387 47.0019L40.63 46.0616C39.0943 45.6447 37.6156 46.8264 37.1972 48.3621L36.6978 50.1917L35.636 54.091C35.2236 55.6311 35.588 57.3693 37.1237 57.7862Z" fill="#FFD3B6"/>
<path d="M37.1237 57.7862L42.782 60.3357L42.818 60.3447C42.95 60.3702 43.3654 60.4392 43.9083 60.5232C44.0556 60.517 44.1991 60.4747 44.3262 60.4001C44.4533 60.3255 44.5601 60.2208 44.6373 60.0952C44.7145 59.9696 44.7596 59.8269 44.7687 59.6798C44.7779 59.5327 44.7507 59.3856 44.6896 59.2514C44.1347 58.0503 44.0211 56.6919 44.3687 55.4152L44.5037 54.9218C44.5032 54.9168 44.5032 54.9118 44.5037 54.9068L44.9416 53.3006C45.2767 52.0672 45.9951 50.9722 46.9932 50.1738C46.781 49.8632 46.4652 49.6384 46.1024 49.5394L46.0664 49.5289L39.8561 48.5901C38.5634 48.2392 37.3066 49.022 36.6978 50.1933L35.636 54.0925C35.2236 55.6312 35.588 57.3693 37.1237 57.7862Z" fill="#FFC197"/>
<path d="M130.4 121.618C130.4 121.618 132.941 99.439 135.285 95.1139C137.629 90.7887 139.613 82.1265 136.006 75.6913C132.399 69.2561 131.155 56.8701 131.155 56.8701C129.755 71.0062 133.962 81.4996 131.012 84.2786C130.901 84.3805 130.699 84.3325 130.412 84.1481L130.4 121.618Z" fill="#D38254"/>
<path d="M199.505 204.044C199.505 204.044 203.836 192.196 211.03 187.115C211.03 187.115 214.377 211.217 218.828 210.317C223.279 209.417 213.162 183.729 213.162 183.729C213.162 183.729 230.823 166.522 239.35 164.544C239.35 164.544 233.717 191.069 237.805 189.103C241.894 187.136 249.038 159.808 249.038 159.808C249.038 159.808 263.945 151.525 273.093 156.519V184.325C266.097 187.094 255.278 191.15 256.327 192.973C257.375 194.797 265.895 195.073 273.093 193.123V212.481C271.457 214.567 269.443 216.123 266.966 216.7C255.406 219.399 249.611 213.624 242.498 215.421C235.385 217.217 230.95 220.784 235.038 221.487C239.127 222.19 250.448 216.995 257.646 219.876C264.845 222.757 270.365 224.168 260.68 229.794C250.995 235.419 231.886 240.356 225.461 233.609L224.659 232.766C224.89 233.084 225.162 233.371 225.467 233.618C223.924 235.382 222.84 241.689 222.218 246.455C222.168 247.244 222.042 248.357 221.814 249.881C221.739 250.587 221.684 251.161 221.646 251.553C221.478 254.633 221.994 258.131 222.807 261.529H219.722C218.74 253.88 220.245 248.155 220.251 248.131C222.359 235.848 219.052 226.871 219.052 226.871C218.986 226.853 195.28 222.36 199.505 204.044Z" fill="#E1EEFB"/>
<path d="M1.28242 182.861C5.34809 167.844 30.6884 172.537 30.6884 172.537C30.6884 172.537 47.8944 198.816 52.9004 199.441C57.9064 200.067 42.5765 174.097 42.5765 174.097C52.2751 173.159 76.9885 185.044 76.9885 185.044C76.9885 185.044 75.4244 215.703 80.4378 215.077C85.4513 214.452 80.4378 187.861 80.4378 187.861C89.8229 190.676 98.5842 201.625 98.5842 201.625C109.532 219.456 86.0707 232.597 86.0707 232.597C86.0707 232.597 85.7573 243.233 92.3259 255.434C92.3259 255.434 93.8076 257.684 95.3148 261.515H92.7563C92.5474 260.828 92.3159 260.167 92.062 259.53C92.0628 259.528 92.0632 259.526 92.0632 259.524C92.0632 259.522 92.0628 259.52 92.062 259.518C92.0586 259.509 92.0546 259.499 92.05 259.491C91.876 259.095 91.6241 258.532 91.3091 257.841C90.5278 256.311 89.9999 255.181 89.6595 254.365C87.3169 249.566 83.9426 243.302 81.6916 241.989C81.9247 241.624 82.1088 241.229 82.239 240.815C82.065 241.19 81.882 241.58 81.6916 241.989C77.3125 251.374 55.4139 252.937 43.2124 250.436C31.0109 247.934 36.3303 244.492 42.9004 238.906C49.4706 233.32 63.2348 234.794 67.3005 232.607C71.3662 230.421 65.4244 228.227 57.29 228.858C49.1557 229.489 45.09 237.618 31.9452 238.87C18.8004 240.122 8.79589 215.407 8.79589 215.407C17.8675 218.222 34.1407 213.216 34.7616 210.088C35.3825 206.959 11.2989 207.273 7.54513 206.339C3.79139 205.404 -2.78476 197.877 1.28242 182.861Z" fill="#DFEBFD"/>
</svg>
