<svg width="193" height="348" viewBox="0 0 193 348" fill="none" xmlns="http://www.w3.org/2000/svg">
<g clip-path="url(#clip0_1140_1127)">
<path d="M220.48 36.5872C228.887 25.6924 236.605 14.2825 243.588 2.42452C243.588 2.42452 225.384 -8.6305 212.085 16.4719C198.786 41.5744 187.149 85.7947 181.081 98.1796C175.013 110.565 112.673 138.493 108.766 142.898C104.86 147.304 94.3032 166.671 111.343 177.227C128.383 187.784 215.66 149.631 225.551 133.257C235.442 116.882 220.48 36.5872 220.48 36.5872Z" fill="#4D74FF"/>
<path d="M109.678 149.798C99.5087 146.594 89.0352 144.449 78.4248 143.397C70.1127 143.896 69.3647 167.752 71.7752 172.905C74.1857 178.059 95.4645 177.643 103.028 176.147C110.592 174.651 115.58 157.445 109.678 149.798Z" fill="#E9B194"/>
<path d="M80.753 153.538C80.005 152.79 79.5063 144.81 75.5996 143.397C71.6929 141.984 70.1968 150.296 70.6955 153.538C71.1942 156.78 79.7556 163.596 80.753 160.271C81.3305 158.064 81.3305 155.745 80.753 153.538Z" fill="#E5AF98"/>
<path d="M75.9323 162.432C75.1842 161.767 74.6855 154.12 70.6957 152.374C66.7059 150.628 64.5446 155.533 65.1265 158.774C65.7083 162.016 74.9349 172.572 75.9323 169.247C76.4597 167.006 76.4597 164.673 75.9323 162.432Z" fill="#E5AF98"/>
<path d="M75.849 170.411C75.1009 169.663 72.8565 165.175 68.9499 163.762C65.0432 162.349 65.2928 167.253 65.7915 170.411C66.2902 173.57 74.8516 180.469 75.849 177.227C76.4226 174.991 76.4226 172.647 75.849 170.411Z" fill="#E5AF98"/>
<path d="M12.7598 313.462C18.561 321.434 25.3476 328.64 32.958 334.907C51.4108 350.784 106.686 348.789 134.781 330.585C166.533 310.055 161.13 266.167 153.483 240.649C152.652 237.823 151.322 233.5 149.493 228.513C144.31 211.697 136.633 195.755 126.718 181.218C114.749 166.755 90.3114 166.09 90.4776 156.281C90.6439 146.473 95.9634 126.94 93.8853 124.197C91.8073 121.454 66.0401 130.514 70.6949 137.829C70.6949 137.829 79.0068 147.886 78.3418 152.79C78.4922 158.104 77.5591 163.392 75.599 168.334C72.856 173.072 34.0387 178.558 23.9811 196.844C-9.76585 256.109 -2.8669 290.771 12.7598 313.462Z" fill="#25283E"/>
<path d="M110.675 151.377C110.675 151.377 100.202 149.548 97.7086 153.289C95.215 157.029 91.6408 162.349 89.3966 162.266C87.1523 162.183 66.2889 171.742 73.188 172.989C80.087 174.235 80.0038 170.246 86.9028 172.989C93.8018 175.732 105.272 178.142 107.932 172.989C110.592 167.835 123.975 168.583 110.675 151.377Z" fill="#EBB9A2"/>
<path d="M78.9223 128.519C70.6102 131.511 69.2804 137.994 72.0234 137.994C74.1866 137.894 76.3325 137.56 78.4236 136.997C78.4236 136.997 78.9224 142.15 83.4109 137.994C87.8994 133.838 83.8265 131.843 87.5669 131.095C91.3073 130.347 94.9645 126.108 93.8839 124.279C92.8033 122.451 86.985 125.443 78.9223 128.519Z" fill="#00001C"/>
<path d="M84.8265 143.231V160.936C86.8779 153.602 88.2142 146.086 88.8164 138.493C87.819 135.75 84.8265 143.231 84.8265 143.231Z" fill="#141620"/>
<path d="M82.2486 177.145C81.8707 182.042 80.4539 186.802 78.0925 191.109C74.6015 195.016 75.5989 201.665 80.1706 198.008C84.7422 194.351 82.2486 177.145 82.2486 177.145Z" fill="#141620"/>
<path d="M89.0662 177.145C89.0662 177.145 92.6403 192.107 98.2925 193.769C103.945 195.432 103.446 189.613 100.038 186.621C96.6302 183.628 89.0662 177.145 89.0662 177.145Z" fill="#141620"/>
<path d="M43.3475 211.889C39.7688 220.399 38.1224 229.597 38.5266 238.82C40.5215 249.376 47.7528 261.512 50.2464 242.311C52.74 223.11 62.8808 209.894 59.1403 207.65C55.3999 205.405 45.1761 200.501 43.3475 211.889Z" fill="#747D97"/>
<path d="M72.9394 172.738C72.3576 172.157 70.7783 169.081 68.0353 168C65.2924 166.92 65.5416 170.494 65.8741 172.738C66.2066 174.983 72.1913 179.803 72.9394 177.476C73.3232 175.92 73.3232 174.294 72.9394 172.738Z" fill="#E5AF98"/>
<path d="M118.572 152.208C118.572 152.208 122.479 153.704 126.469 147.304C130.459 140.903 135.28 140.903 134.781 147.304C134.282 153.704 118.572 152.208 118.572 152.208Z" fill="#3361FF"/>
<path d="M121.067 166.089C122.333 167.806 124.1 169.087 126.124 169.757C128.149 170.427 130.331 170.452 132.371 169.83C140.683 168.5 136.777 160.188 132.371 161.518C128.43 162.573 124.634 164.109 121.067 166.089Z" fill="#3361FF"/>
<path d="M90.2298 210.891C90.2298 210.891 96.7962 209.395 96.8793 222.112C96.9624 234.83 93.6377 238.737 92.3078 234.498C90.9779 230.258 88.5673 219.868 86.4892 224.939C84.4112 230.009 79.5072 262.925 74.8524 246.882C70.1977 230.84 74.1875 210.725 82.4164 209.063C90.6454 207.4 84.0789 212.055 90.2298 210.891Z" fill="#747D97"/>
<path d="M74.8506 179.14C74.8506 179.14 72.5232 191.857 65.7905 193.353C59.0577 194.849 56.5639 188.449 61.7174 186.454C66.3162 184.436 70.7136 181.987 74.8506 179.14Z" fill="#141620"/>
<path d="M13.5917 314.958C19.3405 322.971 26.1015 330.208 33.7067 336.486C52.2426 352.279 107.518 350.284 135.613 332.164C167.365 311.633 161.962 267.746 154.315 242.228C153.484 239.401 152.071 235.079 150.325 230.009C146.086 227.1 137.691 205.073 144.008 231.505C150.325 257.937 153.151 307.311 141.348 317.701C129.545 328.091 136.859 321.608 132.62 317.701C128.381 313.794 131.041 325.265 117.326 331.416C103.611 337.567 100.702 330.585 94.8837 325.265C89.0652 319.945 96.5458 331.998 89.73 336.819C83.3898 339.53 76.5235 340.787 69.6342 340.499C62.7449 340.212 56.0075 338.386 49.9154 335.156C38.1953 327.842 33.2911 312.381 35.2028 321.026C37.1146 329.671 40.0238 334.325 31.5455 330.335C23.0672 326.346 14.2566 308.392 13.5917 314.958Z" fill="#141620"/>
</g>
<defs>
<clipPath id="clip0_1140_1127">
<rect width="193.488" height="347.242" fill="white"/>
</clipPath>
</defs>
</svg>
